<?xml version="1.0" encoding="iso-8859-1"?>
<!-- Uploaded to: SVG Repo, www.svgrepo.com, Generator: SVG Repo Mixer Tools -->
<svg fill="#000000" height="800px" width="800px" version="1.1" id="Layer_1" xmlns="http://www.w3.org/2000/svg" xmlns:xlink="http://www.w3.org/1999/xlink" 
	 viewBox="0 0 511.997 511.997" xml:space="preserve">
<g>
	<g>
		<path d="M499.552,99.778c-26.269-6.333-54.98-4.593-85.33,5.176c-23.873,7.684-48.825,20.339-74.163,37.615
			c-29.255,19.946-51.987,41.18-63.861,53.084c-0.738-1.003-1.547-1.95-2.423-2.831l49.119-98.237
			c1.977-3.952,0.374-8.758-3.578-10.733c-3.95-1.975-8.757-0.374-10.733,3.578l-49.114,98.229c-1.134-0.158-2.29-0.245-3.467-0.245
			c-1.177,0-2.333,0.087-3.467,0.245L203.42,87.429c-1.977-3.952-6.78-5.555-10.733-3.578c-3.952,1.977-5.554,6.781-3.578,10.733
			l49.119,98.237c-0.876,0.881-1.684,1.828-2.423,2.831c-11.874-11.904-34.606-33.137-63.861-53.084
			c-25.338-17.276-50.291-29.931-74.163-37.615c-30.347-9.768-59.058-11.51-85.33-5.176c-8.25,1.988-13.622,10.2-12.231,18.694
			c2.079,12.694,9.964,36.715,16.412,53.661c9.376,24.641,14.846,52.995,15.96,68.912c0.853,12.186,10.278,21.92,22.408,23.144
			c8.188,0.826,23.743,1.727,43.226,2.557c-19.308,11.809-29.438,30.518-29.438,54.674c0,28.83,13.911,54.044,41.348,74.944
			c21.197,16.147,45.649,26.002,62.428,31.424c2.516,0.813,5.088,1.204,7.63,1.204c8.375,0,16.43-4.245,21.133-11.635l46.671-73.34
			v20.072c0,4.418,3.582,8,8,8c4.418,0,8.001-3.582,8.001-8v-20.072l46.671,73.34c4.703,7.39,12.758,11.635,21.133,11.635
			c2.542,0,5.114-0.391,7.63-1.204c16.78-5.423,41.231-15.278,62.428-31.424c27.436-20.9,41.348-46.115,41.348-74.944
			c0-24.156-10.13-42.867-29.438-54.674c19.484-0.83,35.039-1.731,43.226-2.557c12.131-1.224,21.554-10.956,22.408-23.144
			c1.116-15.917,6.586-44.27,15.96-68.912c6.447-16.946,14.333-40.967,16.412-53.661
			C513.173,109.978,507.801,101.767,499.552,99.778z M16.01,115.886c-0.051-0.31,0.132-0.539,0.19-0.553
			c53.266-12.843,109.043,14.81,146.455,40.269c35.062,23.86,61.033,50.341,68.277,58.017v25.719
			c-3.595,4.028-6.233,8.924-7.561,14.332c-20.443-0.067-42.84-0.42-64.545-0.945c-4.336-11.184-14.7-35.28-31.747-59.635
			c-30.581-43.688-68.204-66.96-108.865-67.396C17.19,121.799,16.429,118.446,16.01,115.886z M56.605,248.269
			c-4.358-0.441-7.745-3.948-8.053-8.342c-1.195-17.053-7.014-47.322-16.967-73.483c-3.123-8.211-6.091-16.728-8.602-24.572
			c21.72,1.36,42.111,10.227,60.972,26.473H73.403c-5.382,0-10.108,3.034-12.334,7.917c-2.244,4.925-1.424,10.534,2.142,14.637
			c9.985,11.485,21.819,30.971,22.602,59.272C72.904,249.537,62.679,248.882,56.605,248.269z M78.541,184.344h21.446
			c4.7,5.372,9.292,11.241,13.771,17.617c13.396,19.072,22.553,38.354,27.593,50.301c-14.066-0.405-27.499-0.874-39.521-1.371
			C101.234,219.166,88.233,196.723,78.541,184.344z M84.79,321.42c0-21.152,9.737-36.213,28.939-44.763
			c15.348-6.833,31.188-6.973,31.331-6.973h7.512c-24.798,11.395-54.02,28.9-67.773,52.237
			C84.799,321.753,84.79,321.589,84.79,321.42z M93.199,354.004c-2.765-21.221,14.965-39.258,34.515-52.4
			c-0.089,28.24,8.224,56.548,24.412,82.697c6.937,11.206,14.112,20.099,19.753,26.369
			C148.888,402.589,110.175,384.975,93.199,354.004z M183.319,399.427c-15.394-17.313-43.406-56.393-39.169-107.674
			c6.304-3.392,12.629-6.42,18.628-9.072C169.359,290.385,197.969,328.807,183.319,399.427z M201.694,386.981
			c8.126-60.081-13-96.652-23.501-110.641c9.495-3.627,16.672-5.879,19.236-6.655h24.97v34.669c0,11.376,5.687,21.441,14.361,27.524
			L201.694,386.981z M246.934,210.48c0-5,4.067-9.067,9.067-9.067c5,0,9.067,4.067,9.067,9.067v18.854
			c-2.887-0.811-5.926-1.253-9.067-1.253c-3.142,0-6.181,0.443-9.067,1.253V210.48z M273.602,304.353
			c0,9.705-7.896,17.601-17.601,17.601c-9.705,0-17.601-7.896-17.601-17.601v-42.669c0-9.705,7.896-17.601,17.601-17.601
			c9.705,0,17.601,7.896,17.601,17.601V304.353z M310.307,386.981l-35.067-55.104c8.675-6.082,14.362-16.148,14.362-27.524v-34.669
			h24.97c2.564,0.777,9.741,3.028,19.236,6.655C323.307,290.328,302.182,326.899,310.307,386.981z M328.688,399.433
			c-8.049-38.937-2.791-67.698,3.501-85.604c6.001-17.079,13.943-27.493,17.043-31.143c6.001,2.654,12.328,5.682,18.634,9.076
			c2.385,28.622-4.775,56.753-21.319,83.669C340.321,385.56,333.81,393.688,328.688,399.433z M418.811,353.99
			c-16.974,30.98-55.695,48.597-78.687,56.681c5.641-6.27,12.816-15.162,19.753-26.368c16.189-26.151,24.502-54.462,24.412-82.705
			C415.229,322.34,420.474,341.154,418.811,353.99z M427.211,321.42c0,0.168-0.009,0.333-0.01,0.5
			c-13.753-23.337-42.974-40.841-67.773-52.237h7.512c0.155,0,15.572,0.078,30.929,6.796
			C417.339,284.998,427.211,300.118,427.211,321.42z M410.171,250.892c-12.018,0.496-25.446,0.964-39.506,1.37
			c6.623-15.644,20.35-43.885,41.493-67.917h21.303C423.768,196.724,410.767,219.166,410.171,250.892z M480.417,166.446
			c-9.955,26.159-15.774,56.429-16.969,73.482c-0.308,4.394-3.694,7.901-8.052,8.342c-6.074,0.612-16.299,1.267-29.208,1.902
			c0.783-28.301,12.617-47.786,22.602-59.272c3.566-4.103,4.386-9.711,2.142-14.637c-2.225-4.883-6.952-7.917-12.334-7.917h-10.325
			c16.75-14.358,36.962-24.93,60.74-26.457C486.503,149.729,483.538,158.24,480.417,166.446z M495.991,115.886
			c-0.419,2.56-1.18,5.913-2.204,9.809c-40.662,0.436-78.284,23.708-108.865,67.396c-17.048,24.354-27.412,48.451-31.747,59.635
			c-21.704,0.525-44.102,0.877-64.545,0.945c-1.328-5.407-3.966-10.303-7.561-14.332v-25.721
			c7.216-7.653,33.013-33.972,68.002-57.829c37.485-25.557,93.368-53.322,146.73-40.457
			C495.859,115.346,496.042,115.575,495.991,115.886z"/>
	</g>
</g>
</svg>