<?xml version="1.0" ?>
<!DOCTYPE svg  PUBLIC '-//W3C//DTD SVG 1.0//EN'  'http://www.w3.org/TR/2001/REC-SVG-20010904/DTD/svg10.dtd'>
<!-- Uploaded to: SVG Repo, www.svgrepo.com, Generator: SVG Repo Mixer Tools -->
<svg fill="#000000" width="800px" height="800px" viewBox="0 0 100 100" version="1.0" xml:space="preserve" xmlns="http://www.w3.org/2000/svg" xmlns:xlink="http://www.w3.org/1999/xlink">
<g id="_x31_"/>
<g id="_x32_"/>
<g id="_x33_"/>
<g id="_x34_"/>
<g id="_x35_"/>
<g id="_x36_"/>
<g id="_x37_"/>
<g id="_x38_"/>
<g id="_x39_"/>
<g id="_x31_0"/>
<g id="_x31_1"/>
<g id="_x31_2"/>
<g id="_x31_3"/>
<g id="_x31_4"/>
<g id="_x31_5"/>
<g id="_x31_6"/>
<g id="_x31_7"/>
<g id="_x31_8"/>
<g id="_x31_9"/>
<g id="_x32_0">
<path d="M82.3,71.1h-5.8l-1.7-7.4c-0.2-0.9-1-1.6-1.9-1.6H62.5c-1.1,0-2,0.9-2,2v1h-12v-1c0-1.1-0.9-2-2-2H26.6   c-0.9,0-1.7,0.6-1.9,1.6l-1.7,7.4h-5.2c-1.1,0-2,0.9-2,2v4.6c0,4.7,3.8,8.5,8.5,8.5h51.6c4.7,0,8.5-3.8,8.5-8.5v-4.6   C84.3,72,83.4,71.1,82.3,71.1z M28.2,66.1h16.4v1c0,1.1,0.9,2,2,2h16c1.1,0,2-0.9,2-2v-1h6.6l1.1,4.9H27.1L28.2,66.1z M80.3,77.7   c0,2.5-2,4.5-4.5,4.5H24.2c-2.5,0-4.5-2-4.5-4.5v-2.6h4.8c0,0,0,0,0,0h50.3c0,0,0,0,0,0h5.4V77.7z M62.5,49.1h-16c-1.1,0-2,0.9-2,2   v16c0,1.1,0.9,2,2,2h16c1.1,0,2-0.9,2-2v-16C64.5,50,63.6,49.1,62.5,49.1z M60.5,65.1h-12v-3.6h2.6c1.1,0,2-0.9,2-2s-0.9-2-2-2   h-2.6v-4.4h12V65.1z M74.7,63.7l-2.1-9.2L70.2,44c-0.1-0.3-0.2-0.7-0.3-1.2c-0.5-2.1-1.3-5.3-1.3-11c0-8.4,1.7-15.5,1.8-15.5   c0.2-0.7,0-1.4-0.5-1.9c-0.5-0.5-1.2-0.7-1.9-0.5l-19.2,5.3c-2.8,0.8-5.4,2.1-7.5,4l-4.7,4c-4.3,3.7-6.7,9-6.8,14.6l-2.9,12.6   l-2.1,9.2c-0.1,0.6,0,1.2,0.4,1.7c0.4,0.5,1,0.8,1.6,0.8h19.9c1.1,0,2-0.9,2-2v-9.2v-1.8h12v1.8v9.2c0,1.1,0.9,2,2,2h10.2   c0.6,0,1.2-0.3,1.6-0.8C74.7,64.9,74.8,64.3,74.7,63.7z M44.5,62.1H29.1l1.2-5.2h14.2V62.1z M46.5,49.1c-1.1,0-2,0.9-2,2v1.8H31.2   l2.4-10.3c0-0.1,0.1-0.3,0.1-0.4c0-4.5,2-8.8,5.4-11.8l4.7-4c1.7-1.5,3.8-2.6,6-3.2l16.1-4.4c-0.5,3-1.2,7.8-1.2,13.2   c0,6.2,0.9,9.8,1.5,12c0.1,0.4,0.2,0.7,0.3,1.1l1.8,8h-3.6v-1.8c0-1.1-0.9-2-2-2H46.5z M64.5,62.1v-5.2H69l1.2,5.2H64.5z"/>
</g>
<g id="_x32_1"/>
<g id="_x32_2"/>
<g id="_x32_3"/>
</svg>